<svg xmlns="http://www.w3.org/2000/svg" version="1.1" xmlns:xlink="http://www.w3.org/1999/xlink" xmlns:svgjs="http://svgjs.dev/svgjs" width="512" height="512"><svg width="512" height="512" viewBox="0 0 512 512" fill="none" xmlns="http://www.w3.org/2000/svg">
<path d="M392.363 266.073C391.201 264.91 389.626 264.258 387.982 264.258H365.774V239.484H387.982C389.626 239.484 391.201 238.831 392.363 237.669L438.282 191.75C439.444 190.588 440.097 189.013 440.097 187.37V120.744C440.097 117.459 438.792 114.308 436.469 111.985L385.918 61.4346C383.595 59.1114 380.445 57.8064 377.16 57.8064H287.323V0H221.258V57.8064H85V454.194H221.258V512H287.323V454.194H381.289C384.574 454.194 387.724 452.889 390.047 450.566L440.598 400.014C442.921 397.692 444.226 394.541 444.226 391.257V320.502C444.226 318.858 443.573 317.283 442.411 316.121L392.363 266.073ZM283.194 404.645H225.387V107.355H283.194V404.645Z" fill="#101914"></path>
</svg><style>@media (prefers-color-scheme: light) { :root { filter: none; } }
@media (prefers-color-scheme: dark) { :root { filter: none; } }
</style></svg>