<svg xmlns="http://www.w3.org/2000/svg" version="1.1" xmlns:xlink="http://www.w3.org/1999/xlink" xmlns:svgjs="http://svgjs.dev/svgjs" width="475" height="475"><svg width="475" height="475" viewBox="0 0 475 475" fill="none" xmlns="http://www.w3.org/2000/svg">
<path d="M351.614 245.297C351.052 244.735 350.289 244.419 349.494 244.419H328.46V222.161H349.494C350.289 222.161 351.052 221.846 351.614 221.283L394.408 178.524C394.971 177.961 395.287 177.198 395.287 176.402V113.358C395.287 111.766 394.655 110.239 393.528 109.113L345.067 60.6911C343.942 59.567 342.417 58.9355 340.826 58.9355H257.92V7H198.517V58.9355H76V415.065H198.517V467H257.92V415.065H344.539C346.13 415.065 347.655 414.433 348.78 413.309L397.241 364.887C398.367 363.761 399 362.234 399 360.642V293.889C399 293.092 398.684 292.329 398.12 291.766L351.614 245.297ZM254.207 370.548H202.23V103.452H254.207V370.548Z" fill="#101914"></path>
</svg><style>@media (prefers-color-scheme: light) { :root { filter: none; } }
@media (prefers-color-scheme: dark) { :root { filter: none; } }
</style></svg>