<svg xmlns="http://www.w3.org/2000/svg" version="1.1" xmlns:xlink="http://www.w3.org/1999/xlink" xmlns:svgjs="http://svgjs.dev/svgjs" width="174" height="248"><svg width="174" height="248" viewBox="0 0 174 248" fill="none" xmlns="http://www.w3.org/2000/svg">
<path d="M148.879 128.879C148.316 128.316 147.553 128 146.757 128H136V116H146.757C147.553 116 148.316 115.684 148.879 115.121L171.121 92.8787C171.684 92.3161 172 91.553 172 90.7574V58.4853C172 56.894 171.368 55.3679 170.243 54.2426L145.757 29.7574C144.632 28.6321 143.106 28 141.515 28H98V0H66V28H0V220H66V248H98V220H143.515C145.106 220 146.632 219.368 147.757 218.243L172.243 193.757C173.368 192.632 174 191.106 174 189.515V155.243C174 154.447 173.684 153.684 173.121 153.121L148.879 128.879ZM96 196H68V52H96V196Z" fill="#101914"></path>
</svg><style>@media (prefers-color-scheme: light) { :root { filter: none; } }
@media (prefers-color-scheme: dark) { :root { filter: none; } }
</style></svg>